<svg width="60" height="63" viewBox="0 0 60 63" fill="none" xmlns="http://www.w3.org/2000/svg">
<path d="M55.8827 6.36082H10.5786V0.8591C10.5786 0.631252 10.4828 0.412737 10.3121 0.251625C10.1414 0.0905121 9.9099 0 9.66852 0H2.80777C2.06395 0.000353435 1.35065 0.279147 0.824295 0.775237C0.29794 1.27133 0.0015037 1.94421 0 2.64632V42.9268C0.00244424 44.1731 0.528544 45.3676 1.46286 46.2481C2.39718 47.1287 3.66341 47.6234 4.9837 47.6237H8.47158L7.13478 48.0339C6.73963 48.1552 6.39543 48.3917 6.15165 48.7093C5.90788 49.027 5.7771 49.4094 5.77811 49.8017V51.5078C5.77754 51.9005 5.90881 52.2832 6.15307 52.6011C6.39732 52.9189 6.74201 53.1555 7.13762 53.2769L8.61924 53.7306C8.68172 53.7494 8.6945 53.7681 8.71366 53.8244C8.84895 54.1948 9.00901 54.5567 9.19287 54.908C9.20597 54.9285 9.21229 54.9522 9.21103 54.976C9.20976 54.9999 9.20097 55.0229 9.18577 55.042L8.47584 56.3541C8.29086 56.7036 8.22697 57.0992 8.29322 57.4849C8.35947 57.8705 8.5525 58.2268 8.845 58.5032L10.1307 59.7094C10.4232 59.9897 10.8032 60.1741 11.2149 60.2355C11.6266 60.2969 12.0483 60.2321 12.4181 60.0505L13.806 59.3804C13.8253 59.3694 13.8475 59.3638 13.87 59.3644C13.8926 59.365 13.9145 59.3717 13.9331 59.3838C14.308 59.5573 14.694 59.7088 15.0888 59.8374C15.1414 59.8542 15.1598 59.8676 15.1811 59.9299L15.6589 61.3104C15.784 61.6871 16.0339 62.0161 16.3718 62.2489C16.7096 62.4817 17.1177 62.606 17.5359 62.6037H19.3363C19.7516 62.6068 20.1571 62.4847 20.4938 62.2551C20.8304 62.0254 21.0805 61.7003 21.2077 61.3271L21.6904 59.9279C21.6962 59.9062 21.708 59.8863 21.7246 59.8703C21.7412 59.8543 21.762 59.8427 21.7849 59.8368C22.1799 59.7105 22.5653 59.5589 22.9385 59.3831C22.9605 59.3707 22.9856 59.3642 23.0113 59.3642C23.0369 59.3642 23.062 59.3707 23.084 59.3831L24.467 60.0479C24.8352 60.2276 25.2546 60.2915 25.664 60.2301C26.0734 60.1687 26.4512 59.9854 26.7423 59.7068L28.028 58.5005C28.3248 58.2243 28.5203 57.8657 28.5858 57.4771C28.6514 57.0885 28.5835 56.6903 28.3922 56.3407L27.6901 55.044C27.6524 54.9717 27.6638 54.9375 27.6744 54.9154C27.8644 54.5649 28.0258 54.2014 28.1572 53.8278C28.1629 53.8041 28.1751 53.7824 28.1925 53.7646C28.21 53.7468 28.2321 53.7337 28.2566 53.7266L29.7403 53.2756C30.1354 53.1541 30.4794 52.9175 30.7232 52.5999C30.9669 52.2823 31.0978 51.9 31.097 51.5078V49.8017C31.0979 49.4094 30.9671 49.0269 30.7234 48.7091C30.4796 48.3914 30.1355 48.1548 29.7403 48.0332L28.4035 47.6237H49.0539V52.4486C49.0541 52.6766 49.1502 52.8951 49.321 53.0562C49.4918 53.2173 49.7233 53.3077 49.9648 53.3077H56.0432C56.9814 53.2685 57.8694 52.8968 58.5301 52.2668C59.1908 51.6368 59.5756 50.7948 59.6077 49.9089C59.6077 49.8847 59.6226 49.864 59.6226 49.8419V9.90243C59.6236 8.96484 59.2302 8.06523 58.529 7.40118C57.8278 6.73713 56.876 6.36295 55.8827 6.36082ZM1.82026 2.64632C1.8212 2.39981 1.9257 2.16371 2.11083 1.98984C2.29596 1.81596 2.54661 1.71851 2.80777 1.71887H8.75839V39.5447H3.57946C2.96286 39.5441 2.35666 39.6946 1.82026 39.9816V2.64632ZM1.82026 42.9268C1.82063 42.4864 2.00603 42.064 2.3358 41.7523C2.66557 41.4407 3.11281 41.2652 3.57946 41.2643H9.66852C9.78804 41.2643 9.90639 41.242 10.0168 41.1989C10.1272 41.1557 10.2276 41.0924 10.3121 41.0126C10.3966 40.9329 10.4636 40.8382 10.5094 40.7339C10.5551 40.6297 10.5786 40.518 10.5786 40.4052V8.07902H55.8827C56.3924 8.0815 56.8802 8.27449 57.2395 8.61573C57.5987 8.95697 57.8001 9.41867 57.7995 9.89975V46.384C57.7917 46.3793 57.7832 46.376 57.7754 46.372C57.6576 46.3038 57.5355 46.2425 57.4098 46.1883C57.3849 46.1776 57.3594 46.1696 57.3338 46.1595C57.2308 46.1178 57.1256 46.0812 57.0186 46.0496C56.9767 46.0369 56.9334 46.0262 56.8908 46.0154C56.7936 45.9907 56.6942 45.9705 56.5941 45.9545C56.5522 45.9478 56.511 45.9397 56.4684 45.9344C56.3273 45.916 56.185 45.9064 56.0425 45.9055H27.8846L28.3915 44.9727C28.5842 44.6229 28.6532 44.224 28.5883 43.8345C28.5234 43.445 28.328 43.0853 28.0308 42.8082L26.7529 41.6114C26.4616 41.3293 26.082 41.143 25.67 41.0802C25.258 41.0173 24.8355 41.0811 24.4648 41.2623L23.0883 41.925C23.0675 41.9382 23.0433 41.9458 23.0182 41.9469C22.9932 41.9479 22.9683 41.9425 22.9463 41.931C22.5715 41.7551 22.1846 41.6029 21.7884 41.4754C21.7667 41.4706 21.7465 41.4608 21.7299 41.4467C21.7132 41.4327 21.7006 41.4148 21.6933 41.3949L21.212 40.0004C21.0868 39.6237 20.837 39.2947 20.4991 39.0619C20.1612 38.8291 19.7532 38.7048 19.3349 38.7071H17.5374C17.1205 38.7044 16.7137 38.8277 16.3765 39.059C16.0392 39.2902 15.7893 39.6173 15.6632 39.9924L15.1818 41.3842C15.1775 41.4064 15.1662 41.4269 15.1493 41.4429C15.1325 41.4589 15.1109 41.4698 15.0874 41.474C14.6932 41.6031 14.3078 41.7546 13.9331 41.9277C13.9134 41.9395 13.8907 41.9458 13.8674 41.9458C13.8441 41.9458 13.8213 41.9395 13.8017 41.9277L12.4174 41.2576C12.0478 41.076 11.6263 41.0112 11.2148 41.0726C10.8034 41.134 10.4236 41.3184 10.1314 41.5987L8.83364 42.8149C8.5432 43.0944 8.35331 43.4531 8.29087 43.8402C8.22844 44.2272 8.29663 44.623 8.48578 44.9714L8.99054 45.9042H4.9837C4.1463 45.9042 3.34306 45.5908 2.75006 45.0327C2.15707 44.4746 1.8227 43.7173 1.82026 42.9268ZM29.276 49.8017V51.5078C29.2784 51.5377 29.2697 51.5675 29.2513 51.592C29.2328 51.6165 29.206 51.6341 29.1752 51.6418L27.6936 52.0962C27.4016 52.1863 27.1359 52.3395 26.9177 52.5437C26.6996 52.7479 26.535 52.9974 26.437 53.2722C26.3304 53.5762 26.1992 53.8719 26.0444 54.1568C25.9101 54.4166 25.842 54.7024 25.8457 54.9915C25.8494 55.2805 25.9248 55.5648 26.0657 55.8214L26.7757 57.1261C26.7921 57.1511 26.7985 57.1808 26.7936 57.2098C26.7888 57.2388 26.7731 57.2652 26.7494 57.2843L25.4531 58.4999C25.4338 58.5199 25.4076 58.5329 25.3791 58.5365C25.3506 58.54 25.3218 58.5339 25.2976 58.5193L23.9097 57.8492C23.636 57.7162 23.333 57.6461 23.0252 57.6444C22.7175 57.6428 22.4136 57.7097 22.1384 57.8398C21.8339 57.9831 21.5194 58.1067 21.197 58.2097C20.907 58.3036 20.6442 58.4602 20.4297 58.6671C20.2152 58.874 20.0549 59.1254 19.9618 59.4012L19.4797 60.7937C19.472 60.8225 19.4532 60.8476 19.4269 60.8641C19.4007 60.8806 19.3689 60.8872 19.3377 60.8828H17.5374C17.5051 60.8862 17.4728 60.878 17.4465 60.8601C17.4203 60.8421 17.4021 60.8156 17.3954 60.7857L16.9119 59.3938C16.8207 59.118 16.661 58.8668 16.4462 58.6611C16.2313 58.4554 15.9675 58.3011 15.6766 58.211C15.3534 58.1053 15.0374 57.9808 14.7303 57.8385C14.4602 57.7137 14.1635 57.6484 13.8628 57.6475C13.5539 57.6478 13.2495 57.7181 12.9754 57.8525L11.5938 58.518C11.5652 58.534 11.5316 58.54 11.4988 58.535C11.4659 58.5299 11.436 58.5142 11.4142 58.4905L10.1364 57.2943C10.1126 57.2737 10.0962 57.2467 10.0895 57.2169C10.0827 57.1871 10.086 57.1561 10.0987 57.1281L10.8037 55.8261C10.948 55.5676 11.025 55.2803 11.0282 54.9882C11.0314 54.696 10.9608 54.4073 10.8222 54.1461C10.6734 53.8613 10.5439 53.5678 10.4345 53.2675C10.339 52.9919 10.1751 52.7418 9.95656 52.5379C9.73801 52.3341 9.47108 52.1824 9.17796 52.0955L7.69776 51.6425C7.66717 51.6345 7.64043 51.6168 7.62206 51.5924C7.6037 51.568 7.59482 51.5383 7.59695 51.5085V49.8017C7.59453 49.7721 7.60295 49.7427 7.62078 49.7183C7.63862 49.6939 7.66479 49.676 7.69492 49.6676L9.17299 49.2146C9.4657 49.132 9.73291 48.9838 9.95184 48.7826C10.1708 48.5815 10.3349 48.3333 10.4303 48.0593C10.5433 47.7489 10.6773 47.4456 10.8314 47.1513C10.9686 46.8949 11.0388 46.6112 11.0361 46.3239C11.0334 46.0367 10.9578 45.7542 10.8158 45.5001L10.1115 44.1987C10.0947 44.1718 10.0872 44.1406 10.0901 44.1095C10.093 44.0783 10.1062 44.0489 10.1278 44.0252L11.4157 42.819C11.4372 42.7958 11.4665 42.7803 11.4987 42.7752C11.5309 42.7701 11.564 42.7756 11.5924 42.7908L12.9704 43.4536C13.2413 43.5867 13.5416 43.6577 13.847 43.6609C14.1524 43.664 14.4543 43.5992 14.7282 43.4717C15.0352 43.3293 15.3513 43.2048 15.6745 43.0991C15.9654 43.0094 16.2295 42.8555 16.4447 42.6502C16.6599 42.4448 16.8201 42.1939 16.9119 41.9183L17.3989 40.511C17.4065 40.4821 17.4253 40.4569 17.4515 40.4403C17.4778 40.4236 17.5097 40.4169 17.5409 40.4212H19.3413C19.3747 40.4195 19.4076 40.4293 19.4338 40.449C19.46 40.4686 19.4776 40.4967 19.4833 40.5278L19.9632 41.915C20.0556 42.1887 20.2149 42.438 20.4283 42.6429C20.6416 42.8478 20.903 43.0024 21.1914 43.0944H21.1985C21.5226 43.1985 21.839 43.323 22.1455 43.467C22.4201 43.5954 22.7229 43.6611 23.0294 43.6587C23.3359 43.6562 23.6374 43.5857 23.9097 43.4529L25.2919 42.7875C25.3187 42.7715 25.3508 42.7654 25.382 42.7705C25.4132 42.7756 25.4413 42.7914 25.4609 42.8149L26.7473 44.0212C26.7712 44.0413 26.7867 44.0689 26.7909 44.0989C26.7951 44.1289 26.7877 44.1594 26.77 44.1847L26.0558 45.5088C25.9182 45.7652 25.846 46.0484 25.845 46.3358C25.844 46.6232 25.9143 46.9068 26.0501 47.164C26.2065 47.4555 26.3393 47.7577 26.4477 48.068C26.5479 48.3379 26.7129 48.5822 26.93 48.7817C27.147 48.9813 27.4101 49.1306 27.6986 49.218L29.1752 49.6696C29.205 49.6782 29.2311 49.6957 29.2493 49.7196C29.2675 49.7434 29.2769 49.7723 29.276 49.8017ZM56.0403 51.5902H50.8749V47.6237H56.0432C56.5366 47.7066 56.9833 47.9508 57.3051 48.3134C57.627 48.676 57.8033 49.1339 57.8033 49.607C57.8033 50.08 57.627 50.538 57.3051 50.9006C56.9833 51.2632 56.5366 51.5073 56.0432 51.5902H56.0403ZM53.3213 24.282C53.3217 23.8811 53.1536 23.4964 52.8539 23.2123C52.5541 22.9283 52.1473 22.7681 51.7226 22.7668H27.0028C26.1032 22.7546 25.2448 22.4087 24.6132 21.8038C23.9815 21.199 23.6275 20.3838 23.6275 19.5345C23.6275 18.6852 23.9815 17.87 24.6132 17.2651C25.2448 16.6603 26.1032 16.3144 27.0028 16.3021H42.661L41.9887 15.7298C41.8094 15.5773 41.7016 15.3637 41.6891 15.1361C41.6766 14.9085 41.7603 14.6855 41.922 14.5162C42.0836 14.347 42.3099 14.2452 42.551 14.2334C42.7921 14.2216 43.0283 14.3007 43.2077 14.4532L45.6427 16.5226C45.6484 16.528 45.6512 16.536 45.6569 16.5407C45.6995 16.5845 45.737 16.6323 45.7691 16.6834C45.8034 16.7229 45.8338 16.7653 45.86 16.8101C45.8876 16.9123 45.9151 17.0146 45.9423 17.117C45.9423 17.1244 45.9423 17.1311 45.9423 17.1391C45.9423 17.1472 45.9473 17.1532 45.9473 17.1612C45.9417 17.2082 45.9317 17.2546 45.9175 17.2999C45.9112 17.3574 45.8991 17.4142 45.8813 17.4695C45.8544 17.5245 45.8213 17.5766 45.7826 17.6249C45.7622 17.6638 45.7384 17.701 45.7116 17.7362L43.5129 20.0374C43.4349 20.1275 43.3382 20.2017 43.2289 20.2555C43.1195 20.3092 42.9998 20.3415 42.8768 20.3502C42.7539 20.359 42.6303 20.344 42.5136 20.3063C42.397 20.2687 42.2897 20.209 42.1982 20.1309C42.1067 20.0529 42.033 19.9581 41.9815 19.8524C41.93 19.7466 41.9018 19.6321 41.8986 19.5158C41.8954 19.3994 41.9173 19.2837 41.9629 19.1756C42.0086 19.0674 42.077 18.9692 42.1641 18.8868L42.9876 18.0203H27.0028C26.5833 18.0287 26.1838 18.1918 25.8902 18.4749C25.5966 18.7579 25.4322 19.1383 25.4322 19.5345C25.4322 19.9306 25.5966 20.311 25.8902 20.594C26.1838 20.8771 26.5833 21.0403 27.0028 21.0486H51.7226C52.6308 21.0486 53.5019 21.3892 54.1442 21.9954C54.7864 22.6017 55.1473 23.4239 55.1473 24.2813C55.1473 25.1387 54.7864 25.9609 54.1442 26.5671C53.5019 27.1734 52.6308 27.514 51.7226 27.514H26.6699C26.4564 27.5097 26.2442 27.5458 26.0456 27.62C25.8471 27.6941 25.6662 27.805 25.5136 27.946C25.361 28.087 25.2398 28.2554 25.1571 28.4412C25.0743 28.627 25.0317 28.8266 25.0317 29.0281C25.0317 29.2297 25.0743 29.4292 25.1571 29.615C25.2398 29.8009 25.361 29.9692 25.5136 30.1102C25.6662 30.2512 25.8471 30.3621 26.0456 30.4363C26.2442 30.5105 26.4564 30.5465 26.6699 30.5423H38.9694C39.8777 30.5423 40.7488 30.8829 41.391 31.4891C42.0333 32.0953 42.3941 32.9176 42.3941 33.775C42.3941 34.6323 42.0333 35.4546 41.391 36.0608C40.7488 36.667 39.8777 37.0076 38.9694 37.0076H17.2044C16.9673 37.0014 16.7422 36.9081 16.5768 36.7476C16.4115 36.5871 16.319 36.3721 16.319 36.1482C16.319 35.9243 16.4115 35.7093 16.5768 35.5488C16.7422 35.3883 16.9673 35.295 17.2044 35.2888H38.9694C39.389 35.2804 39.7884 35.1172 40.082 34.8342C40.3757 34.5511 40.5401 34.1708 40.5401 33.7746C40.5401 33.3785 40.3757 32.9981 40.082 32.715C39.7884 32.432 39.389 32.2688 38.9694 32.2605H26.6699C25.7616 32.2605 24.8905 31.9199 24.2483 31.3136C23.606 30.7074 23.2452 29.8851 23.2452 29.0278C23.2452 28.1704 23.606 27.3482 24.2483 26.7419C24.8905 26.1357 25.7616 25.7951 26.6699 25.7951H51.7226C52.147 25.7942 52.5538 25.6344 52.8535 25.3507C53.1533 25.067 53.3215 24.6826 53.3213 24.282ZM51.7481 18.5913C52.7208 18.591 53.6717 18.3185 54.4803 17.8081C55.289 17.2978 55.9191 16.5726 56.2912 15.7242C56.6632 14.8758 56.7603 13.9424 56.5703 13.0418C56.3804 12.1413 55.9117 11.3142 55.2238 10.6651C54.5358 10.016 53.6593 9.574 52.7053 9.39505C51.7512 9.2161 50.7623 9.30821 49.8637 9.65974C48.9651 10.0113 48.1971 10.6064 47.6568 11.37C47.1165 12.1335 46.8282 13.0311 46.8283 13.9493C46.83 15.1803 47.3489 16.3604 48.2713 17.2306C49.1936 18.1009 50.444 18.5902 51.7481 18.5913ZM51.7481 11.0249C52.3606 11.0253 52.9592 11.1971 53.4683 11.5186C53.9774 11.84 54.374 12.2968 54.6082 12.831C54.8423 13.3653 54.9034 13.953 54.7837 14.52C54.664 15.087 54.3689 15.6078 53.9357 16.0165C53.5025 16.4252 52.9506 16.7036 52.3499 16.8163C51.7492 16.929 51.1265 16.8711 50.5607 16.6498C49.9948 16.4286 49.5111 16.054 49.1708 15.5733C48.8304 15.0926 48.6487 14.5275 48.6486 13.9493C48.6497 13.1738 48.9767 12.4304 49.5577 11.8821C50.1388 11.3339 50.9265 11.0256 51.7481 11.0249ZM14.0878 20.4066L15.2741 19.2848L14.0878 18.1631C14.0027 18.0834 13.9351 17.9886 13.8888 17.8842C13.8426 17.7798 13.8187 17.6678 13.8185 17.5546C13.8182 17.4414 13.8417 17.3293 13.8875 17.2247C13.9333 17.1201 14.0006 17.0251 14.0854 16.9452C14.1702 16.8652 14.2709 16.8018 14.3818 16.7587C14.4926 16.7156 14.6114 16.6935 14.7313 16.6939C14.8512 16.6942 14.9698 16.7169 15.0804 16.7607C15.191 16.8044 15.2913 16.8683 15.3756 16.9488L16.5598 18.0686L17.7425 16.9495C17.9131 16.7882 18.1446 16.6975 18.386 16.6973C18.6275 16.6971 18.8591 16.7874 19.03 16.9485C19.2009 17.1095 19.297 17.328 19.2972 17.5559C19.2974 17.7838 19.2016 18.0024 19.0311 18.1637L17.8419 19.2855L19.0282 20.4073C19.1874 20.5704 19.2737 20.7852 19.2689 21.0069C19.2642 21.2286 19.1688 21.44 19.0027 21.5969C18.8367 21.7537 18.6128 21.8439 18.3779 21.8485C18.143 21.8531 17.9154 21.7718 17.7425 21.6216L16.5591 20.5018L15.3749 21.6216C15.2906 21.702 15.1903 21.766 15.0797 21.8097C14.9691 21.8535 14.8505 21.8762 14.7306 21.8765C14.6107 21.8768 14.4919 21.8548 14.3811 21.8117C14.2702 21.7686 14.1695 21.7052 14.0847 21.6252C13.9999 21.5452 13.9326 21.4502 13.8868 21.3456C13.841 21.2411 13.8175 21.129 13.8178 21.0158C13.818 20.9026 13.8419 20.7906 13.8881 20.6862C13.9343 20.5818 14.002 20.487 14.0871 20.4073L14.0878 20.4066ZM52.9131 32.5211L51.7247 33.6423L52.9131 34.7634C52.9983 34.843 53.0661 34.9377 53.1124 35.042C53.1588 35.1464 53.1828 35.2584 53.1832 35.3716C53.1835 35.4847 53.1602 35.5969 53.1145 35.7015C53.0688 35.8061 53.0017 35.9012 52.917 35.9813C52.8322 36.0614 52.7316 36.1248 52.6208 36.1681C52.51 36.2113 52.3912 36.2335 52.2713 36.2332C52.1514 36.233 52.0328 36.2105 51.9221 36.1668C51.8115 36.1232 51.7111 36.0594 51.6267 35.979L50.4369 34.8572L49.247 35.979C49.1625 36.0588 49.0621 36.122 48.9516 36.1652C48.8412 36.2084 48.7228 36.2305 48.6032 36.2305C48.3618 36.2305 48.1303 36.1399 47.9596 35.9787C47.7889 35.8175 47.6931 35.5989 47.6931 35.371C47.6932 35.143 47.7892 34.9245 47.9599 34.7634L49.1491 33.6423L47.9599 32.5211C47.7892 32.36 47.6932 32.1415 47.6931 31.9136C47.6931 31.6857 47.7889 31.4671 47.9596 31.3059C48.1303 31.1447 48.3618 31.0541 48.6032 31.054C48.8447 31.054 49.0763 31.1444 49.247 31.3055L50.4369 32.4273L51.6267 31.3055C51.7111 31.2252 51.8115 31.1613 51.9221 31.1177C52.0328 31.0741 52.1514 31.0515 52.2713 31.0513C52.3912 31.0511 52.51 31.0732 52.6208 31.1165C52.7316 31.1597 52.8322 31.2232 52.917 31.3032C53.0017 31.3833 53.0688 31.4784 53.1145 31.583C53.1602 31.6877 53.1835 31.7998 53.1832 31.913C53.1828 32.0261 53.1588 32.1381 53.1124 32.2425C53.0661 32.3469 52.9983 32.4416 52.9131 32.5211ZM18.4376 44.2577C17.0971 44.2572 15.7865 44.6319 14.6717 45.3345C13.5569 46.0371 12.6878 47.036 12.1744 48.2048C11.6611 49.3737 11.5264 50.66 11.7876 51.9011C12.0488 53.1421 12.694 54.2822 13.6417 55.1771C14.5893 56.072 15.7969 56.6816 17.1115 56.9286C18.4262 57.1757 19.789 57.0491 21.0275 56.565C22.266 56.0809 23.3246 55.261 24.0694 54.209C24.8142 53.1569 25.2117 51.92 25.2117 50.6547C25.2102 48.959 24.4961 47.3332 23.2261 46.1339C21.9561 44.9346 20.234 44.2598 18.4376 44.2577ZM18.4376 55.3335C17.4571 55.3342 16.4984 55.0604 15.6828 54.5466C14.8672 54.0329 14.2313 53.3024 13.8556 52.4475C13.4799 51.5927 13.3812 50.6518 13.5721 49.744C13.7629 48.8362 14.2348 48.0022 14.9278 47.3475C15.6209 46.6928 16.5041 46.2469 17.4657 46.0661C18.4273 45.8853 19.4241 45.9777 20.33 46.3317C21.236 46.6858 22.0103 47.2855 22.5551 48.055C23.0999 48.8245 23.3907 49.7292 23.3907 50.6547C23.3898 51.8948 22.8678 53.0838 21.9392 53.961C21.0106 54.8381 19.7513 55.3318 18.4376 55.3335ZM50.5533 15.5375L49.3102 14.3983C49.2219 14.3203 49.1508 14.2265 49.1013 14.1224C49.0518 14.0182 49.0248 13.9058 49.0218 13.7917C49.0189 13.6776 49.04 13.564 49.0841 13.4577C49.1282 13.3514 49.1942 13.2544 49.2784 13.1725C49.3627 13.0905 49.4633 13.0253 49.5746 12.9805C49.6858 12.9357 49.8054 12.9123 49.9263 12.9116C50.0473 12.9109 50.1672 12.933 50.2789 12.9766C50.3907 13.0201 50.4922 13.0843 50.5774 13.1653L51.1915 13.7268L52.7129 12.3551C52.8878 12.1996 53.1208 12.1158 53.3609 12.1218C53.6011 12.1278 53.829 12.2232 53.9949 12.3871C54.1609 12.5511 54.2514 12.7704 54.2468 12.9971C54.2421 13.2239 54.1427 13.4397 53.9702 13.5975L51.8156 15.5409C51.6456 15.6947 51.419 15.7802 51.1836 15.7795C50.9481 15.7787 50.7222 15.6924 50.5533 15.5375Z" fill="#0AA8E2"/>
</svg>
