<svg width="62" height="62" viewBox="0 0 62 62" fill="none" xmlns="http://www.w3.org/2000/svg">
<path d="M26.7726 25.7116C26.7726 27.5475 28.6886 29.041 31.0345 29.041C34.9904 29.041 38.2105 31.8385 38.2105 35.2845C38.2105 38.286 35.748 40.8067 32.4915 41.3968V43.8738C32.4915 44.2602 32.338 44.6308 32.0648 44.9041C31.7915 45.1773 31.4209 45.3309 31.0345 45.3309C30.648 45.3309 30.2774 45.1773 30.0042 44.9041C29.7309 44.6308 29.5774 44.2602 29.5774 43.8738V41.3968C26.3209 40.8067 23.8585 38.286 23.8585 35.2845C23.8585 34.898 24.012 34.5274 24.2852 34.2542C24.5585 33.9809 24.9291 33.8274 25.3155 33.8274C25.702 33.8274 26.0726 33.9809 26.3458 34.2542C26.6191 34.5274 26.7726 34.898 26.7726 35.2845C26.7726 37.1204 28.6886 38.6066 31.0345 38.6066C33.3803 38.6066 35.2964 37.1495 35.2964 35.2845C35.2964 33.4194 33.3803 31.9624 31.0345 31.9624C27.0786 31.9624 23.8585 29.1576 23.8585 25.7189C23.8585 22.7101 26.3209 20.1967 29.5774 19.6066V17.7415C29.5774 17.3551 29.7309 16.9845 30.0042 16.7113C30.2774 16.438 30.648 16.2845 31.0345 16.2845C31.4209 16.2845 31.7915 16.438 32.0648 16.7113C32.338 16.9845 32.4915 17.3551 32.4915 17.7415V19.6066C35.748 20.1967 38.2105 22.7101 38.2105 25.7189C38.2105 26.1053 38.0569 26.476 37.7837 26.7492C37.5104 27.0225 37.1398 27.176 36.7534 27.176C36.367 27.176 35.9964 27.0225 35.7231 26.7492C35.4499 26.476 35.2964 26.1053 35.2964 25.7189C35.2964 23.883 33.3803 22.3895 31.0345 22.3895C28.6886 22.3895 26.7726 23.883 26.7726 25.7116ZM53.1016 30.8113C53.1016 35.1758 51.8073 39.4422 49.3826 43.0711C46.9578 46.7 43.5114 49.5284 39.4792 51.1986C35.4469 52.8688 31.01 53.3058 26.7294 52.4544C22.4488 51.6029 18.5168 49.5012 15.4307 46.4151C12.3446 43.329 10.2429 39.397 9.39141 35.1164C8.53995 30.8358 8.97695 26.3988 10.6472 22.3666C12.3174 18.3344 15.1458 14.888 18.7747 12.4632C22.4036 10.0385 26.67 8.74424 31.0345 8.74424C36.8847 8.75195 42.493 11.0793 46.6297 15.2161C50.7664 19.3528 53.0938 24.9611 53.1016 30.8113ZM50.1874 30.8113C50.1874 27.0232 49.0641 23.3202 46.9596 20.1705C44.855 17.0208 41.8637 14.5659 38.364 13.1163C34.8643 11.6666 31.0132 11.2873 27.2979 12.0264C23.5826 12.7654 20.1699 14.5895 17.4913 17.2681C14.8127 19.9467 12.9885 23.3594 12.2495 27.0748C11.5105 30.7901 11.8898 34.6411 13.3394 38.1408C14.7891 41.6406 17.244 44.6319 20.3937 46.7364C23.5433 48.841 27.2464 49.9643 31.0345 49.9643C36.1118 49.9566 40.9789 47.9362 44.5692 44.346C48.1594 40.7558 50.1797 35.8886 50.1874 30.8113ZM60.8458 30.8113C60.8458 36.7074 59.0974 42.4711 55.8217 47.3736C52.546 52.276 47.8901 56.097 42.4428 58.3534C36.9955 60.6097 31.0014 61.2001 25.2186 60.0498C19.4357 58.8995 14.1239 56.0603 9.95469 51.8911C5.7855 47.7219 2.94625 42.41 1.79597 36.6272C0.645698 30.8444 1.23606 24.8503 3.49241 19.403C5.74876 13.9557 9.56975 9.29982 14.4722 6.02411C19.3746 2.7484 25.1384 1 31.0345 1C38.9362 1.0154 46.5099 4.16118 52.0972 9.74855C57.6846 15.3359 60.8304 22.9096 60.8458 30.8113ZM57.9317 30.8113C57.9317 25.4915 56.3542 20.2913 53.3987 15.868C50.4432 11.4448 46.2424 7.99732 41.3276 5.96153C36.4128 3.92575 31.0046 3.3931 25.7871 4.43093C20.5695 5.46876 15.7769 8.03047 12.0153 11.7921C8.25363 15.5538 5.69192 20.3464 4.65409 25.5639C3.61625 30.7815 4.14891 36.1896 6.18469 41.1044C8.22048 46.0193 11.668 50.22 16.0912 53.1755C20.5144 56.131 25.7147 57.7085 31.0345 57.7085C38.1633 57.6931 44.9958 54.8544 50.0367 49.8135C55.0775 44.7726 57.9163 37.9402 57.9317 30.8113Z" fill="#0AA8E2" stroke="white" stroke-width="0.89434"/>
</svg>
