<svg width="59" height="63" viewBox="0 0 59 63" fill="none" xmlns="http://www.w3.org/2000/svg">
<path fill-rule="evenodd" clip-rule="evenodd" d="M26.9936 22.7457C26.9936 22.4279 26.7754 22.1539 26.4706 22.0899C23.5821 21.4817 19.3609 21.5469 16.4724 22.087C16.1613 22.1453 15.9346 22.4224 15.9346 22.7457V29.6669C15.9346 29.8688 16.024 30.0597 16.1774 30.1869C16.3309 30.3141 16.5323 30.3637 16.7252 30.3224C19.4602 29.7361 23.4575 29.6828 26.1925 30.3198C26.3868 30.3651 26.591 30.3175 26.7472 30.1903C26.9028 30.0634 26.9936 29.8708 26.9936 29.6669V22.7457ZM25.6828 23.3017V28.8514C23.1181 28.4009 19.8087 28.4332 17.2468 28.8615L17.2461 23.3121C19.7777 22.9135 23.154 22.8657 25.6821 23.3017H25.6828Z" fill="#0AA8E2" stroke="#0AA8E2" stroke-width="0.596226"/>
<path fill-rule="evenodd" clip-rule="evenodd" d="M26.4717 31.6436C23.5832 31.0354 19.362 31.1005 16.4735 31.6407C16.1173 31.7073 15.8815 32.0565 15.9469 32.4199C16.0117 32.7836 16.3538 33.0246 16.7101 32.958C19.4535 32.445 23.4635 32.3778 26.207 32.9551C26.5611 33.0298 26.9081 32.7965 26.9814 32.4346C27.0546 32.0727 26.8265 31.718 26.4717 31.6436Z" fill="#0AA8E2" stroke="#0AA8E2" stroke-width="0.596226"/>
<path fill-rule="evenodd" clip-rule="evenodd" d="M26.4717 34.9611C23.5832 34.3529 19.362 34.4181 16.4735 34.9583C16.1173 35.0249 15.8815 35.3741 15.9469 35.7375C16.0117 36.1011 16.3538 36.3422 16.7101 36.2756C19.4535 35.7626 23.4635 35.6954 26.207 36.2727C26.5611 36.3474 26.9081 36.1141 26.9814 35.7522C27.0546 35.3903 26.8265 35.0355 26.4717 34.9611Z" fill="#0AA8E2" stroke="#0AA8E2" stroke-width="0.596226"/>
<path fill-rule="evenodd" clip-rule="evenodd" d="M26.4717 38.2802C23.5832 37.672 19.362 37.7371 16.4735 38.2773C16.1173 38.3439 15.8815 38.6931 15.9469 39.0565C16.0117 39.4201 16.3538 39.6612 16.7101 39.5946C19.4535 39.0816 23.4635 39.0144 26.207 39.5917C26.5611 39.6664 26.9081 39.4331 26.9814 39.0712C27.0546 38.7093 26.8265 38.3546 26.4717 38.2802Z" fill="#0AA8E2" stroke="#0AA8E2" stroke-width="0.596226"/>
<path fill-rule="evenodd" clip-rule="evenodd" d="M43.2383 34.5361C43.2383 34.2183 43.02 33.9443 42.7152 33.8803C39.8267 33.2721 35.6055 33.3373 32.7171 33.8774C32.4059 33.9357 32.1792 34.2128 32.1792 34.5361V41.4573C32.1792 41.6592 32.2686 41.8501 32.4221 41.9773C32.5755 42.1045 32.7769 42.1541 32.9698 42.1128C35.7048 41.5265 39.7021 41.4732 42.4371 42.1102C42.6314 42.1555 42.8356 42.1079 42.9919 41.9807C43.1474 41.8539 43.2383 41.6612 43.2383 41.4573V34.5361ZM41.9274 35.0921V40.6418C39.3628 40.1913 36.0533 40.2236 33.4915 40.6519L33.4907 35.1025C36.0223 34.7039 39.3987 34.6561 41.9267 35.0921H41.9274Z" fill="#0AA8E2" stroke="#0AA8E2" stroke-width="0.596226"/>
<path fill-rule="evenodd" clip-rule="evenodd" d="M42.7163 24.2772C39.8278 23.669 35.6066 23.7341 32.7182 24.2743C32.3619 24.3409 32.1261 24.6901 32.1916 25.0535C32.2563 25.4172 32.5985 25.6582 32.9547 25.5916C35.6982 25.0786 39.7081 25.0114 42.4516 25.5887C42.8057 25.6634 43.1528 25.4301 43.226 25.0682C43.2992 24.7063 43.0711 24.3516 42.7163 24.2772Z" fill="#0AA8E2" stroke="#0AA8E2" stroke-width="0.596226"/>
<path fill-rule="evenodd" clip-rule="evenodd" d="M42.7163 27.5962C39.8278 26.988 35.6066 27.0532 32.7182 27.5933C32.3619 27.6599 32.1261 28.0092 32.1916 28.3725C32.2563 28.7362 32.5985 28.9773 32.9547 28.9107C35.6982 28.3976 39.7081 28.3304 42.4516 28.9078C42.8057 28.9825 43.1528 28.7492 43.226 28.3872C43.2992 28.0253 43.0711 27.6706 42.7163 27.5962Z" fill="#0AA8E2" stroke="#0AA8E2" stroke-width="0.596226"/>
<path fill-rule="evenodd" clip-rule="evenodd" d="M42.7163 30.9136C39.8278 30.3054 35.6066 30.3706 32.7182 30.9107C32.3619 30.9773 32.1261 31.3266 32.1916 31.6899C32.2563 32.0536 32.5985 32.2947 32.9547 32.228C35.6982 31.715 39.7081 31.6478 42.4516 32.2252C42.8057 32.2999 43.1528 32.0665 43.226 31.7046C43.2992 31.3427 43.0711 30.988 42.7163 30.9136Z" fill="#0AA8E2" stroke="#0AA8E2" stroke-width="0.596226"/>
<path fill-rule="evenodd" clip-rule="evenodd" d="M29.6021 20.0873C24.7641 17.8734 17.8475 18.152 13.0869 20.2012C12.8442 20.3057 12.6855 20.5481 12.6855 20.8173V47.3648C12.6855 47.5952 12.8023 47.8095 12.9924 47.9314C13.0842 47.9903 13.1865 48.0238 13.2901 48.0319C13.3006 48.0332 13.3164 48.0345 13.3387 48.0345H13.3413H29.5863H45.834C45.8865 48.0345 45.9206 48.0319 45.9389 48.0252C46.0203 48.0118 46.1003 47.9823 46.1724 47.9381C46.3691 47.8162 46.4898 47.5992 46.4898 47.3648V20.8173C46.4898 20.5588 46.3429 20.3231 46.1147 20.2132C41.3554 17.9068 34.4414 18.1051 29.6021 20.0873ZM42.1292 46.6952C39.3764 46.0415 36.3142 46.071 33.5417 46.6952H42.1292ZM25.8828 46.6952C23.13 46.0415 20.0678 46.071 17.2967 46.6952H25.8828ZM28.9319 21.2486V46.3054C24.4494 44.3406 18.4756 44.4839 13.997 46.3362V21.2687C18.3917 19.5195 24.5438 19.2998 28.9319 21.2486ZM30.2434 21.2687C34.6381 19.5195 40.7902 19.2998 45.177 21.2486H45.1783V46.3054C40.6957 44.3406 34.7207 44.4839 30.2434 46.3362V21.2687Z" fill="#0AA8E2" stroke="#0AA8E2" stroke-width="0.596226"/>
<path fill-rule="evenodd" clip-rule="evenodd" d="M29.4064 3.99896C13.6623 4.09807 0.909668 17.1823 0.909668 33.2855C0.909668 33.6552 1.20344 33.9552 1.5654 33.9552C1.92736 33.9552 2.22113 33.6552 2.22113 33.2855C2.22113 17.9216 14.3862 5.43744 29.4051 5.33832L27.552 7.22949C27.2963 7.49066 27.2963 7.91524 27.552 8.17642C27.8091 8.4376 28.2235 8.4376 28.4792 8.17642L31.4523 5.14143C31.708 4.88026 31.708 4.45568 31.4523 4.1945L28.4792 1.15816C28.2235 0.896986 27.8091 0.896986 27.552 1.15816C27.2963 1.42068 27.2963 1.84393 27.552 2.10644L29.4064 3.99896Z" fill="#0AA8E2" stroke="#0AA8E2" stroke-width="0.596226"/>
<path fill-rule="evenodd" clip-rule="evenodd" d="M53.3836 47.0594L52.7055 44.4758C52.6124 44.1195 52.2518 43.9066 51.9029 44.003C51.5528 44.0981 51.3456 44.4651 51.4387 44.8227L52.5272 48.9694C52.6203 49.3256 52.9796 49.5386 53.3298 49.4422L57.3901 48.3318C57.7389 48.2354 57.9474 47.8684 57.853 47.5108C57.7599 47.1545 57.3993 46.9416 57.0504 47.038L54.5193 47.7305C62.3067 33.7569 57.5868 15.9353 43.9319 7.88436C43.6184 7.69953 43.2171 7.80938 43.0361 8.12949C42.8551 8.44959 42.9627 8.85942 43.2761 9.04425C56.3042 16.7255 60.8091 33.7261 53.3836 47.0594Z" fill="#0AA8E2" stroke="#0AA8E2" stroke-width="0.596226"/>
<path fill-rule="evenodd" clip-rule="evenodd" d="M4.84315 48.0894C12.7998 61.9639 30.2711 66.6999 43.926 58.649C44.2395 58.4641 44.347 58.0543 44.166 57.7342C43.985 57.414 43.5837 57.3042 43.2703 57.4891C30.2422 65.1703 13.5735 60.654 5.98018 47.4211L8.50999 48.1135C8.86015 48.2086 9.21949 47.997 9.3126 47.6394C9.40703 47.2818 9.19851 46.9148 8.84966 46.8197L4.78938 45.708C4.43922 45.6129 4.07988 45.8245 3.98677 46.1821L2.89825 50.3288C2.80514 50.6851 3.01236 51.0521 3.36252 51.1485C3.71136 51.2436 4.07202 51.032 4.16513 50.6744L4.84315 48.0894Z" fill="#0AA8E2" stroke="#0AA8E2" stroke-width="0.596226"/>
</svg>
