<svg width="24" height="24" viewBox="0 0 24 24" fill="none" xmlns="http://www.w3.org/2000/svg">
<rect width="24" height="24" rx="8" fill="#0976B4"/>
<path fill-rule="evenodd" clip-rule="evenodd" d="M7.32528 8.90336C8.15141 8.90336 8.82115 8.2926 8.82115 7.53835C8.82115 6.78344 8.15141 6.17188 7.32528 6.17188C6.49835 6.17188 5.82861 6.78344 5.82861 7.53835C5.82861 8.2926 6.49835 8.90336 7.32528 8.90336Z" fill="white"/>
<path fill-rule="evenodd" clip-rule="evenodd" d="M6.17139 17.6833H8.85539V9.94238H6.17139V17.6833Z" fill="white"/>
<path fill-rule="evenodd" clip-rule="evenodd" d="M12.6225 13.378C12.6225 12.4903 13.0425 11.6222 14.0467 11.6222C15.051 11.6222 15.2979 12.4903 15.2979 13.3568V17.5845H17.9699V13.184C17.9699 10.1267 16.1627 9.59961 15.051 9.59961C13.9402 9.59961 13.3275 9.97533 12.6225 10.8857V9.84359H9.94287V17.5845H12.6225V13.378Z" fill="white"/>
</svg>
