<svg width="72" height="72" viewBox="0 0 72 72" fill="none" xmlns="http://www.w3.org/2000/svg">
<g clip-path="url(#clip0_798_24584)">
<rect width="71.5472" height="71.5472" transform="translate(0.132324)" fill="white"/>
<path d="M18.019 50.7168C18.0186 52.8092 18.46 54.8781 19.3142 56.7883C20.1685 58.6985 21.4164 60.407 22.9764 61.8019C23.0792 61.9679 23.2301 62.0987 23.4091 62.1769C26.0818 64.4034 29.4506 65.6227 32.9295 65.6227C36.4084 65.6227 39.7772 64.4034 42.4499 62.1769C42.6289 62.0987 42.7798 61.9679 42.8826 61.8019C44.732 60.142 46.1368 58.0461 46.9693 55.7049C47.8018 53.3637 48.0355 50.8516 47.6492 48.3971C47.2629 45.9426 46.2689 43.6236 44.7575 41.6511C43.2461 39.6787 41.2654 38.1153 38.9956 37.1033C36.7257 36.0913 34.2388 35.6628 31.761 35.8568C29.2833 36.0508 26.8934 36.8611 24.8088 38.214C22.7242 39.5669 21.011 41.4194 19.8252 43.603C18.6393 45.7867 18.0185 48.2321 18.019 50.7168ZM32.9247 63.6959C29.9672 63.6925 27.1004 62.6744 24.8035 60.8117C24.9432 60.1408 25.3106 59.539 25.8434 59.1079C26.3762 58.6769 27.0416 58.4433 27.727 58.4466C28.2422 58.4488 28.7514 58.335 29.2167 58.1136C29.682 57.8922 30.0915 57.569 30.4148 57.1679C30.4597 57.113 30.4984 57.0534 30.5302 56.99L31.0543 55.9277C31.6438 56.1795 32.2789 56.3071 32.9199 56.3026H33.0064C33.6171 56.2799 34.2158 56.1257 34.7615 55.8507L35.3288 57.0141C35.3606 57.0774 35.3993 57.1371 35.4442 57.1919C35.7675 57.5931 36.177 57.9163 36.6423 58.1376C37.1076 58.359 37.6168 58.4728 38.1321 58.4706C38.8124 58.4684 39.473 58.6996 40.0033 59.1257C40.5336 59.5518 40.9017 60.1469 41.0459 60.8117C38.749 62.6744 35.8822 63.6925 32.9247 63.6959ZM27.9914 52.255C27.9082 52.2609 27.8246 52.2609 27.7414 52.255C27.2444 52.2538 26.7682 52.0558 26.4168 51.7045C26.0654 51.3532 25.8674 50.8771 25.8662 50.3803V48.0344C25.8674 46.357 26.5345 44.7487 27.7209 43.5626C28.9073 42.3765 30.516 41.7096 32.1938 41.7083H33.6363C34.4687 41.7064 35.2933 41.8686 36.063 42.1856C36.8326 42.5026 37.5322 42.9682 38.1217 43.5558C38.7112 44.1433 39.179 44.8413 39.4985 45.6098C39.8179 46.3783 39.9826 47.2022 39.9833 48.0344V50.3995C39.982 50.8963 39.784 51.3725 39.4326 51.7238C39.0812 52.0751 38.605 52.273 38.108 52.2743C37.9918 52.2742 37.8759 52.2629 37.7618 52.2406C38.0983 51.3179 38.329 50.36 38.4494 49.3852C38.5042 48.9615 38.4162 48.5315 38.1994 48.1633C37.9826 47.7951 37.6493 47.5096 37.2522 47.3518C36.7377 47.1499 35.1509 46.3423 34.6893 45.3425C34.5352 45.0046 34.2866 44.7187 33.9735 44.5191C33.6603 44.3195 33.2961 44.2147 32.9247 44.2176H32.9007C32.5297 44.2223 32.168 44.3341 31.8591 44.5397C31.5503 44.7453 31.3075 45.0357 31.1601 45.3761C30.6195 46.3155 29.7322 47.0058 28.6886 47.2989C28.2923 47.4344 27.9511 47.6955 27.7168 48.0426C27.4824 48.3896 27.3678 48.8037 27.3904 49.2218C27.4496 50.2558 27.6519 51.2766 27.9914 52.255ZM32.9247 46.1404C33.8335 48.0873 36.5405 49.1304 36.5405 49.1304C35.8529 54.3269 33.1411 54.4182 32.992 54.4182H32.9247C29.607 54.4182 29.3185 49.1304 29.3185 49.1304C30.0904 48.9013 30.8079 48.5183 31.4277 48.0044C32.0475 47.4905 32.5567 46.8564 32.9247 46.1404ZM32.9247 37.7376C35.429 37.7418 37.8787 38.47 39.9784 39.8344C42.0782 41.1989 43.7384 43.1414 44.7589 45.4278C45.7793 47.7142 46.1166 50.2469 45.73 52.7206C45.3433 55.1943 44.2493 57.5034 42.5797 59.3695C42.1827 58.5226 41.5527 57.8061 40.7634 57.3039C39.9741 56.8016 39.0581 56.5344 38.1224 56.5333C37.911 56.5362 37.7013 56.495 37.5067 56.4122C37.3122 56.3294 37.137 56.207 36.9925 56.0526L36.3193 54.6874C36.5218 54.4671 36.7082 54.2326 36.8771 53.9856C37.2727 54.1242 37.6888 54.1957 38.108 54.1971C39.1151 54.1958 40.0805 53.7953 40.7926 53.0834C41.5047 52.3715 41.9053 51.4063 41.9066 50.3995V48.0344C41.9053 45.847 41.0356 43.7496 39.4885 42.2029C37.9414 40.6562 35.8435 39.7867 33.6556 39.7855H32.2131C31.1281 39.7836 30.0534 39.9955 29.0504 40.4091C28.0474 40.8228 27.1358 41.43 26.3677 42.1961C25.5996 42.9622 24.9901 43.8722 24.574 44.874C24.158 45.8758 23.9435 46.9497 23.9428 48.0344V50.3995C23.9441 51.4063 24.3447 52.3715 25.0568 53.0834C25.7689 53.7953 26.7343 54.1958 27.7414 54.1971C28.1182 54.1958 28.4927 54.1374 28.8521 54.024C29.0333 54.3049 29.2375 54.5702 29.4627 54.8172L28.8521 56.0526C28.7076 56.207 28.5324 56.3294 28.3379 56.4122C28.1433 56.495 27.9336 56.5362 27.7221 56.5333C26.7865 56.5344 25.8705 56.8016 25.0812 57.3039C24.2919 57.8061 23.6619 58.5226 23.2649 59.3695C21.5951 57.5031 20.5009 55.1935 20.1145 52.7194C19.728 50.2453 20.0656 47.7122 21.0867 45.4257C22.1078 43.1391 23.7687 41.1966 25.8692 39.8325C27.9697 38.4684 30.42 37.7408 32.9247 37.7376Z" fill="#0AA8E2"/>
<path d="M15.038 35.8113C17.986 35.8113 20.8679 34.9371 23.3191 33.2993C25.7703 31.6614 27.6808 29.3335 28.809 26.6098C29.9372 23.8862 30.2324 20.8891 29.6572 17.9977C29.0821 15.1063 27.6625 12.4504 25.5779 10.3658C23.4933 8.28118 20.8373 6.86155 17.9459 6.28641C15.0545 5.71128 12.0575 6.00646 9.33383 7.13463C6.61018 8.26281 4.28223 10.1733 2.64438 12.6245C1.00653 15.0757 0.132324 17.9576 0.132324 20.9057C0.132324 24.8589 1.70274 28.6502 4.49809 31.4456C7.29344 34.2409 11.0848 35.8113 15.038 35.8113ZM15.038 33.888C12.0624 33.8964 9.17508 32.8773 6.86391 31.003C6.90115 30.2411 7.23184 29.5232 7.78669 28.9998C8.34153 28.4763 9.07746 28.1879 9.84023 28.195C10.3555 28.1972 10.8647 28.0834 11.33 27.862C11.7953 27.6406 12.2047 27.3172 12.5281 26.916C12.5705 26.8561 12.606 26.7916 12.6338 26.7237L13.057 25.8678C13.6622 26.0826 14.2996 26.1932 14.9418 26.1948C15.6347 26.1918 16.3205 26.0546 16.9613 25.7909L17.4421 26.7237C17.4739 26.7871 17.5126 26.8467 17.5575 26.9016C17.8808 27.3028 18.2903 27.6261 18.7556 27.8475C19.2209 28.0689 19.7301 28.1828 20.2453 28.1806C21.0088 28.1761 21.7444 28.4676 22.2976 28.9939C22.8507 29.5202 23.1785 30.2403 23.2121 31.003C20.9009 32.8773 18.0136 33.8964 15.038 33.888ZM14.5572 16.0637C14.7352 15.8509 14.896 15.6242 15.038 15.3858C15.18 15.6242 15.3408 15.8509 15.5188 16.0637C16.5959 17.2754 18.173 17.9197 20.2021 17.987C20.1684 18.1794 20.1251 18.3765 20.0722 18.5688C19.5875 20.4809 18.5367 22.202 17.0575 23.5069C16.3029 24.0716 15.3608 24.3259 14.4246 24.2177C13.4884 24.1095 12.6291 23.647 12.0232 22.9251C10.8482 21.528 10.09 19.8284 9.83543 18.0207C11.8741 17.9245 13.4561 17.2754 14.5572 16.0637ZM9.84985 16.0637C10.0304 14.9747 10.5603 13.9739 11.3596 13.2124C12.1132 12.5046 13.0577 12.0332 14.0763 11.8565C14.1096 12.9152 13.7691 13.9519 13.1147 14.7847C12.3886 15.5781 11.2875 16.0108 9.82581 16.0974L9.84985 16.0637ZM15.9996 11.8613C17.0569 12.0466 18.0317 12.5523 18.7919 13.31C19.5522 14.0677 20.0613 15.0408 20.2502 16.0974C18.8077 16.0253 17.697 15.6166 16.9901 14.8088C16.3199 13.9754 15.9687 12.9303 15.9996 11.8613ZM15.038 7.92332C17.5266 7.92599 19.962 8.64387 22.0541 9.99148C24.1463 11.3391 25.807 13.2596 26.8386 15.5244C27.8701 17.7891 28.229 20.3026 27.8725 22.7656C27.516 25.2285 26.4591 27.5371 24.8276 29.4163C24.4718 28.4866 23.8425 27.6865 23.0227 27.1217C22.203 26.5568 21.2312 26.2538 20.2357 26.2525C20.0243 26.2554 19.8146 26.2141 19.62 26.1313C19.4254 26.0485 19.2503 25.926 19.1058 25.7716L18.6009 24.7523C20.2275 23.2234 21.3934 21.2696 21.9667 19.1122C22.1597 18.404 22.2552 17.6728 22.2504 16.9388C22.2314 15.0429 21.4615 13.2318 20.1096 11.9025C18.7577 10.5731 16.934 9.83381 15.038 9.84663C13.1786 9.84045 11.3881 10.5498 10.0374 11.8276C9.33771 12.4822 8.78027 13.2738 8.39976 14.1531C8.01924 15.0325 7.82379 15.9807 7.82557 16.9388C7.88029 19.6058 8.85728 22.1715 10.5903 24.1993C10.831 24.4658 11.0949 24.7104 11.3789 24.9302L10.9702 25.7572C10.8257 25.9116 10.6505 26.0341 10.4559 26.1169C10.2614 26.1997 10.0517 26.2409 9.84023 26.238C8.84472 26.2394 7.87299 26.5424 7.05322 27.1073C6.23345 27.6721 5.60415 28.4721 5.24833 29.4019C3.62143 27.5223 2.56839 25.2151 2.21437 22.7545C1.86034 20.2939 2.22022 17.7834 3.25123 15.5214C4.28224 13.2593 5.94102 11.3408 8.03044 9.99395C10.1199 8.64706 12.5521 7.92837 15.038 7.92332Z" fill="#0AA8E2"/>
<path d="M50.8114 6C47.8634 6 44.9815 6.8742 42.5303 8.51206C40.0791 10.1499 38.1686 12.4779 37.0404 15.2015C35.9122 17.9252 35.617 20.9222 36.1922 23.8136C36.7673 26.705 38.1869 29.361 40.2715 31.4455C42.3561 33.5301 45.0121 34.9498 47.9035 35.5249C50.7949 36.1 53.7919 35.8049 56.5156 34.6767C59.2392 33.5485 61.5672 31.638 63.205 29.1868C64.8429 26.7356 65.7171 23.8537 65.7171 20.9057C65.7171 16.9524 64.1467 13.1611 61.3513 10.3658C58.556 7.57041 54.7647 6 50.8114 6ZM50.8114 33.888C47.8358 33.8963 44.9485 32.8773 42.6374 31.003C42.6746 30.2411 43.0053 29.5232 43.5601 28.9998C44.115 28.4763 44.8509 28.1879 45.6137 28.195C46.129 28.1972 46.6381 28.0834 47.1034 27.862C47.5687 27.6405 47.9782 27.3172 48.3015 26.916C48.344 26.8561 48.3795 26.7916 48.4073 26.7237L48.8304 25.8678C49.4357 26.0826 50.073 26.1931 50.7153 26.1948C51.4127 26.1952 52.1036 26.0596 52.7492 25.7957L53.23 26.7285C53.2618 26.7919 53.3005 26.8515 53.3454 26.9064C53.6687 27.3076 54.0782 27.6309 54.5435 27.8523C55.0088 28.0737 55.5179 28.1876 56.0332 28.1854C56.7934 28.1846 57.5247 28.4771 58.0746 29.002C58.6245 29.5268 58.9508 30.2436 58.9855 31.003C56.6743 32.8773 53.787 33.8963 50.8114 33.888ZM48.1813 18.0207C49.7921 17.9835 51.369 17.5509 52.7732 16.7609C53.1905 16.6157 53.6339 16.5607 54.0741 16.5997C54.5142 16.6386 54.9411 16.7706 55.3264 16.9869C55.5458 17.1411 55.7127 17.3587 55.8047 17.6106C55.8966 17.8625 55.9093 18.1365 55.8409 18.3957C55.8287 18.4835 55.8287 18.5725 55.8409 18.6602C55.3507 20.5463 54.3075 22.2426 52.8453 23.531C52.0868 24.0972 51.1397 24.35 50.1999 24.2373C49.2601 24.1245 48.3997 23.6547 47.7966 22.9251C46.6426 21.5535 45.8904 19.8894 45.6233 18.1169C46.4686 17.9781 47.328 17.9458 48.1813 18.0207ZM45.5848 16.1839C45.7502 15.0469 46.2959 13.9994 47.1331 13.2124C47.7598 12.6223 48.5197 12.1923 49.3483 11.9588C50.1768 11.7253 51.0495 11.6954 51.8921 11.8714C52.7347 12.0475 53.5223 12.4244 54.188 12.9701C54.8538 13.5158 55.3779 14.2142 55.7159 15.0059C55.1041 14.7578 54.4493 14.6331 53.7892 14.6389C53.1291 14.6446 52.4766 14.7808 51.8692 15.0396C50.7684 15.674 49.5321 16.0366 48.263 16.0974C47.3698 16.0372 46.4728 16.0646 45.5848 16.1791V16.1839ZM60.6011 29.4163C60.2453 28.4866 59.616 27.6865 58.7962 27.1217C57.9764 26.5568 57.0047 26.2538 56.0092 26.2525C55.7977 26.2554 55.588 26.2141 55.3935 26.1313C55.1989 26.0485 55.0237 25.926 54.8792 25.7716L54.3744 24.7523C56.0009 23.2234 57.1669 21.2696 57.7402 19.1122C57.9368 18.4093 58.0371 17.6831 58.0383 16.9533C58.0307 16.012 57.8378 15.0815 57.4704 14.2148C57.1031 13.3482 56.5686 12.5624 55.8974 11.9024C55.2263 11.2424 54.4317 10.7212 53.559 10.3684C52.6863 10.0157 51.7527 9.83838 50.8114 9.84662C48.952 9.84044 47.1615 10.5498 45.8108 11.8276C45.1112 12.4822 44.5537 13.2738 44.1732 14.1531C43.7927 15.0325 43.5972 15.9807 43.599 16.9388C43.6537 19.6058 44.6307 22.1714 46.3638 24.1993C46.6044 24.4658 46.8683 24.7104 47.1523 24.9302L46.7436 25.7572C46.5991 25.9116 46.424 26.0341 46.2294 26.1169C46.0348 26.1997 45.8251 26.2409 45.6137 26.238C44.6182 26.2394 43.6464 26.5424 42.8267 27.1072C42.0069 27.6721 41.3776 28.4721 41.0218 29.4019C39.3853 27.523 38.3241 25.213 37.9648 22.7474C37.6055 20.2819 37.9632 17.765 38.9954 15.4972C40.0275 13.2295 41.6905 11.3067 43.7857 9.95825C45.8809 8.60986 48.3198 7.89287 50.8114 7.89287C53.303 7.89287 55.742 8.60986 57.8372 9.95825C59.9324 11.3067 61.5953 13.2295 62.6275 15.4972C63.6596 17.765 64.0174 20.2819 63.6581 22.7474C63.2987 25.213 62.2375 27.523 60.6011 29.4019V29.4163Z" fill="#0AA8E2"/>
</g>
<defs>
<clipPath id="clip0_798_24584">
<rect width="71.5472" height="71.5472" fill="white" transform="translate(0.132324)"/>
</clipPath>
</defs>
</svg>
