<svg width="61" height="57" viewBox="0 0 61 57" fill="none" xmlns="http://www.w3.org/2000/svg">
<path d="M2.32869 1.31724V55.3243H59.2412V1.31724H2.32869ZM2.32869 0H59.2412C59.9896 0 60.5963 0.58975 60.5963 1.31724V55.3243C60.5963 56.0518 59.9896 56.6415 59.2412 56.6415H2.32869C1.58031 56.6415 0.973633 56.0518 0.973633 55.3243V1.31724C0.973633 0.58975 1.58031 0 2.32869 0Z" fill="#0AA8E2"/>
<path d="M1.31299 7.24492H60.3577V5.92767H1.31299V7.24492Z" fill="#0AA8E2"/>
<path d="M12.1535 4.61033C12.7148 4.61033 13.1698 4.16801 13.1698 3.62239C13.1698 3.07677 12.7148 2.63446 12.1535 2.63446C11.5922 2.63446 11.1372 3.07677 11.1372 3.62239C11.1372 4.16801 11.5922 4.61033 12.1535 4.61033Z" fill="#0AA8E2"/>
<path d="M5.37762 4.61036C5.93891 4.61036 6.39392 4.16804 6.39392 3.62242C6.39392 3.0768 5.93891 2.63449 5.37762 2.63449C4.81634 2.63449 4.36133 3.0768 4.36133 3.62242C4.36133 4.16804 4.81634 4.61036 5.37762 4.61036Z" fill="#0AA8E2"/>
<path d="M8.7663 4.61033C9.32758 4.61033 9.78259 4.16801 9.78259 3.62239C9.78259 3.07677 9.32758 2.63446 8.7663 2.63446C8.20501 2.63446 7.75 3.07677 7.75 3.62239C7.75 4.16801 8.20501 4.61033 8.7663 4.61033Z" fill="#0AA8E2"/>
<path d="M11.8137 44.1276C14.0589 44.1276 15.8789 42.3583 15.8789 40.1758C15.8789 37.9933 14.0589 36.2241 11.8137 36.2241C9.56858 36.2241 7.74854 37.9933 7.74854 40.1758C7.74854 42.3583 9.56858 44.1276 11.8137 44.1276Z" stroke="#0AA8E2" stroke-width="1.49057"/>
<path d="M24.6873 34.2484C26.9324 34.2484 28.7524 32.4791 28.7524 30.2966C28.7524 28.1142 26.9324 26.3449 24.6873 26.3449C22.4421 26.3449 20.6221 28.1142 20.6221 30.2966C20.6221 32.4791 22.4421 34.2484 24.6873 34.2484Z" stroke="#0AA8E2" stroke-width="1.49057"/>
<path d="M37.5608 40.176C39.8059 40.176 41.626 38.4068 41.626 36.2243C41.626 34.0418 39.8059 32.2726 37.5608 32.2726C35.3156 32.2726 33.4956 34.0418 33.4956 36.2243C33.4956 38.4068 35.3156 40.176 37.5608 40.176Z" stroke="#0AA8E2" stroke-width="1.49057"/>
<path d="M49.7561 27.0035C52.0012 27.0035 53.8213 25.2343 53.8213 23.0518C53.8213 20.8693 52.0012 19.1001 49.7561 19.1001C47.511 19.1001 45.6909 20.8693 45.6909 23.0518C45.6909 25.2343 47.511 27.0035 49.7561 27.0035Z" stroke="#0AA8E2" stroke-width="1.49057"/>
<path d="M15.8794 37.5415L20.6221 33.5898" stroke="#0AA8E2" stroke-width="1.49057" stroke-linecap="square"/>
<path d="M15.8794 37.5415L20.6221 33.5898" stroke="#0AA8E2" stroke-width="1.49057" stroke-linecap="square"/>
<path d="M29.4287 32.2726L32.8164 34.2484" stroke="#0AA8E2" stroke-width="1.49057" stroke-linecap="square"/>
<path d="M40.9482 33.5896L46.3685 27.0034" stroke="#0AA8E2" stroke-width="1.49057" stroke-linecap="square"/>
</svg>
