<svg width="30" height="30" viewBox="0 0 30 30" fill="none" xmlns="http://www.w3.org/2000/svg">
<path fill-rule="evenodd" clip-rule="evenodd" d="M15.2424 25.1213C15.0916 25.0377 14.9084 25.0377 14.7576 25.1213L6.49682 29.6997C6.13162 29.9021 5.69388 29.5942 5.76093 29.1821L7.35111 19.408C7.37655 19.2517 7.3264 19.0925 7.21593 18.979L0.460317 12.037C0.176761 11.7456 0.341048 11.2556 0.74294 11.194L10.0338 9.77079C10.1987 9.74553 10.3402 9.63966 10.4109 9.48855L14.5472 0.65331C14.7269 0.269304 15.2731 0.269305 15.4528 0.653312L19.5891 9.48855C19.6598 9.63966 19.8013 9.74553 19.9662 9.77079L29.2571 11.194C29.659 11.2556 29.8232 11.7456 29.5397 12.037L22.7841 18.979C22.6736 19.0925 22.6235 19.2517 22.6489 19.408L24.2391 29.1821C24.3061 29.5942 23.8684 29.9021 23.5032 29.6997L15.2424 25.1213Z" fill="#DFCF6A"/>
</svg>
