<svg width="46" height="60" viewBox="0 0 46 60" fill="none" xmlns="http://www.w3.org/2000/svg">
<mask id="path-1-inside-1_798_24598" fill="white">
<path d="M25.6208 9.91316C25.9056 10.2005 26.048 10.5597 26.048 10.9907C26.048 11.4217 25.9056 11.7809 25.6208 12.0682C25.336 12.3555 24.9799 12.4992 24.5527 12.4992C24.1255 12.4992 23.7694 12.3555 23.4846 12.0682C23.1998 11.7809 23.0574 11.4217 23.0574 10.9907C23.0574 10.5597 23.1998 10.2005 23.4846 9.91316C23.7694 9.62582 24.1255 9.48216 24.5527 9.48216C24.9087 9.48216 25.336 9.62582 25.6208 9.91316ZM24.5527 4.74108C23.6982 4.74108 23.0574 5.45942 23.0574 6.2496C23.0574 7.11162 23.7694 7.75813 24.5527 7.75813C25.4072 7.75813 26.048 7.11162 26.048 6.2496C26.048 5.38759 25.336 4.74108 24.5527 4.74108ZM25.6208 0.431007C25.336 0.143669 24.9799 0 24.5527 0C24.1255 0 23.7694 0.143669 23.4846 0.431007C23.1998 0.718345 23.0574 1.07752 23.0574 1.50853C23.0574 1.93953 23.1998 2.2987 23.4846 2.58604C23.7694 2.87338 24.1255 3.01705 24.5527 3.01705C24.9799 3.01705 25.336 2.87338 25.6208 2.58604C25.9056 2.2987 26.048 1.93953 26.048 1.50853C26.048 1.07752 25.9056 0.718345 25.6208 0.431007ZM45.1311 21.7659C44.8462 21.4785 44.4902 21.3349 44.063 21.3349C43.6357 21.3349 43.2797 21.4785 42.9949 21.7659C42.7101 22.0532 42.5677 22.4124 42.5677 22.8434C42.5677 23.2744 42.7101 23.6336 42.9949 23.9209C43.2797 24.2082 43.6357 24.3519 44.063 24.3519C44.4902 24.3519 44.8462 24.2082 45.1311 23.9209C45.4159 23.6336 45.5583 23.2744 45.5583 22.8434C45.5583 22.4124 45.4159 22.0532 45.1311 21.7659ZM39.3634 24.3519C40.2179 24.3519 40.8587 23.7054 40.8587 22.8434C40.8587 21.9814 40.1467 21.3349 39.3634 21.3349C38.509 21.3349 37.8681 22.0532 37.8681 22.8434C37.8681 23.6336 38.509 24.3519 39.3634 24.3519ZM34.6639 24.3519C35.0911 24.3519 35.4471 24.2082 35.7319 23.9209C36.0168 23.6336 36.1592 23.2744 36.1592 22.8434C36.1592 22.4124 36.0168 22.0532 35.7319 21.7659C35.4471 21.4785 35.0911 21.3349 34.6639 21.3349C34.2366 21.3349 33.8806 21.4785 33.5958 21.7659C33.311 22.0532 33.1686 22.4124 33.1686 22.8434C33.1686 23.2744 33.311 23.6336 33.5958 23.9209C33.8806 24.2082 34.2366 24.3519 34.6639 24.3519ZM3.97434 21.7659C3.68952 22.0532 3.54711 22.4124 3.54711 22.8434C3.54711 23.2744 3.68952 23.6336 3.97434 23.9209C4.25917 24.2082 4.61519 24.3519 5.04243 24.3519C5.46966 24.3519 5.82568 24.2082 6.11051 23.9209C6.39533 23.6336 6.53774 23.2744 6.53774 22.8434C6.53774 22.4124 6.39533 22.0532 6.11051 21.7659C5.82568 21.4785 5.46966 21.3349 5.04243 21.3349C4.61519 21.263 4.18796 21.4785 3.97434 21.7659ZM9.67078 24.3519C10.5252 24.3519 11.1661 23.7054 11.1661 22.8434C11.1661 21.9814 10.454 21.3349 9.67078 21.3349C8.81631 21.3349 8.17546 22.0532 8.17546 22.8434C8.17546 23.6336 8.88752 24.3519 9.67078 24.3519ZM14.3703 24.3519C14.7976 24.3519 15.1536 24.2082 15.4384 23.9209C15.7232 23.6336 15.8656 23.2744 15.8656 22.8434C15.8656 22.4124 15.7232 22.0532 15.4384 21.7659C15.1536 21.4785 14.7976 21.3349 14.3703 21.3349C13.9431 21.3349 13.5871 21.4785 13.3022 21.7659C13.0174 22.0532 12.875 22.4124 12.875 22.8434C12.875 23.2744 13.0174 23.6336 13.3022 23.9209C13.5871 24.2082 14.0143 24.3519 14.3703 24.3519ZM10.098 8.04547C10.3828 7.75813 10.5252 7.39895 10.5252 6.96795C10.5252 6.53694 10.3828 6.17777 10.098 5.89043C9.81319 5.60309 9.45716 5.45942 9.02993 5.45942C8.60269 5.45942 8.24667 5.60309 7.96185 5.89043C7.67702 6.17777 7.53461 6.53694 7.53461 6.96795C7.53461 7.39895 7.67702 7.75813 7.96185 8.04547C8.24667 8.3328 8.60269 8.47647 9.02993 8.47647C9.38595 8.47647 9.81319 8.3328 10.098 8.04547ZM12.3054 11.8527C12.6614 11.8527 13.0886 11.709 13.3735 11.4217C13.9431 10.847 13.9431 9.84133 13.3735 9.26665C12.8038 8.69197 11.8069 8.69197 11.2373 9.26665C10.6677 9.84133 10.6677 10.847 11.2373 11.4217C11.5933 11.709 11.9493 11.8527 12.3054 11.8527ZM17.1473 13.6486C17.1473 13.2175 17.0049 12.8584 16.7201 12.571C16.4353 12.2837 16.0793 12.14 15.652 12.14C15.2248 12.14 14.8688 12.2837 14.5839 12.571C14.2991 12.8584 14.1567 13.2175 14.1567 13.6486C14.1567 14.0796 14.2991 14.4387 14.5839 14.7261C14.8688 15.0134 15.2248 15.1571 15.652 15.1571C16.0793 15.1571 16.4353 15.0134 16.7201 14.7261C17.0049 14.4387 17.1473 14.0796 17.1473 13.6486ZM40.1467 8.69198C40.4315 8.40464 40.5739 8.04547 40.5739 7.61446C40.5739 7.18345 40.4315 6.82428 40.1467 6.53694C39.8619 6.2496 39.5058 6.10593 39.0786 6.10593C38.6514 6.10593 38.2953 6.2496 38.0105 6.53694C37.7257 6.82428 37.5833 7.18345 37.5833 7.61446C37.5833 8.04547 37.7257 8.40464 38.0105 8.69198C38.2953 8.97931 38.6514 9.12298 39.0786 9.12298C39.4346 9.19482 39.8619 8.97931 40.1467 8.69198ZM36.8 9.91316C36.2304 9.33849 35.2335 9.33849 34.6639 9.91316C34.0942 10.4878 34.0942 11.4935 34.6639 12.0682C34.9487 12.3555 35.3759 12.4992 35.7319 12.4992C36.088 12.4992 36.5152 12.3555 36.8 12.0682C37.3697 11.4935 37.3697 10.4878 36.8 9.91316ZM33.4534 13.2894C33.1686 13.002 32.8125 12.8584 32.3853 12.8584C31.9581 12.8584 31.602 13.002 31.3172 13.2894C31.0324 13.5767 30.89 13.9359 30.89 14.3669C30.89 14.7979 31.0324 15.1571 31.3172 15.4444C31.602 15.7318 31.9581 15.8754 32.3853 15.8754C32.8125 15.8754 33.1686 15.7318 33.4534 15.4444C33.7382 15.1571 33.8806 14.7979 33.8806 14.3669C33.9518 13.9359 33.7382 13.5767 33.4534 13.2894ZM35.2335 59.6226H16.5777C14.94 59.6226 13.5159 59.048 12.3766 58.0423C11.8781 58.617 11.0949 58.9761 10.3116 58.9761H3.68952C2.12301 58.9761 0.841309 57.6831 0.841309 56.1028V35.7736C0.841309 34.1932 2.12301 32.9002 3.68952 32.9002H10.3116C11.0237 32.9002 11.6645 33.1875 12.163 33.6185C12.2342 33.5467 12.3766 33.5467 12.4478 33.4749C12.7326 33.403 19.3547 31.3917 19.3547 25.7168V18.1023C19.3547 17.4558 19.7819 16.8811 20.4228 16.6656C20.5652 16.5938 24.4103 15.4444 27.1873 17.5276C28.9674 18.8206 29.8219 21.0475 29.8219 24.0646V30.4578H38.865C42.4253 30.4578 45.3447 33.403 45.3447 36.9948C45.3447 37.0666 45.3447 37.1384 45.3447 37.2103L42.8525 53.3012C42.354 57.3239 39.577 59.6226 35.2335 59.6226ZM10.098 35.9891H3.83193V55.8873H10.098V35.9891ZM39.8619 52.8702L42.354 36.9229C42.2828 35.0552 40.7875 33.5467 38.865 33.5467H28.3978C27.5433 33.5467 26.9025 32.8284 26.9025 32.0382V23.9927C26.9025 21.9814 26.404 20.6165 25.4784 19.8982C24.6239 19.2516 23.4134 19.1798 22.4877 19.3235V25.7168C22.4877 33.7622 13.7295 36.3483 13.3022 36.4201C13.231 36.4201 13.1598 36.4201 13.0886 36.4201V53.0139C13.0886 54.9534 14.6552 56.5338 16.5777 56.5338H35.2335C39.4346 56.6056 39.7194 53.804 39.8619 52.8702Z"/>
</mask>
<path d="M25.6208 9.91316C25.9056 10.2005 26.048 10.5597 26.048 10.9907C26.048 11.4217 25.9056 11.7809 25.6208 12.0682C25.336 12.3555 24.9799 12.4992 24.5527 12.4992C24.1255 12.4992 23.7694 12.3555 23.4846 12.0682C23.1998 11.7809 23.0574 11.4217 23.0574 10.9907C23.0574 10.5597 23.1998 10.2005 23.4846 9.91316C23.7694 9.62582 24.1255 9.48216 24.5527 9.48216C24.9087 9.48216 25.336 9.62582 25.6208 9.91316ZM24.5527 4.74108C23.6982 4.74108 23.0574 5.45942 23.0574 6.2496C23.0574 7.11162 23.7694 7.75813 24.5527 7.75813C25.4072 7.75813 26.048 7.11162 26.048 6.2496C26.048 5.38759 25.336 4.74108 24.5527 4.74108ZM25.6208 0.431007C25.336 0.143669 24.9799 0 24.5527 0C24.1255 0 23.7694 0.143669 23.4846 0.431007C23.1998 0.718345 23.0574 1.07752 23.0574 1.50853C23.0574 1.93953 23.1998 2.2987 23.4846 2.58604C23.7694 2.87338 24.1255 3.01705 24.5527 3.01705C24.9799 3.01705 25.336 2.87338 25.6208 2.58604C25.9056 2.2987 26.048 1.93953 26.048 1.50853C26.048 1.07752 25.9056 0.718345 25.6208 0.431007ZM45.1311 21.7659C44.8462 21.4785 44.4902 21.3349 44.063 21.3349C43.6357 21.3349 43.2797 21.4785 42.9949 21.7659C42.7101 22.0532 42.5677 22.4124 42.5677 22.8434C42.5677 23.2744 42.7101 23.6336 42.9949 23.9209C43.2797 24.2082 43.6357 24.3519 44.063 24.3519C44.4902 24.3519 44.8462 24.2082 45.1311 23.9209C45.4159 23.6336 45.5583 23.2744 45.5583 22.8434C45.5583 22.4124 45.4159 22.0532 45.1311 21.7659ZM39.3634 24.3519C40.2179 24.3519 40.8587 23.7054 40.8587 22.8434C40.8587 21.9814 40.1467 21.3349 39.3634 21.3349C38.509 21.3349 37.8681 22.0532 37.8681 22.8434C37.8681 23.6336 38.509 24.3519 39.3634 24.3519ZM34.6639 24.3519C35.0911 24.3519 35.4471 24.2082 35.7319 23.9209C36.0168 23.6336 36.1592 23.2744 36.1592 22.8434C36.1592 22.4124 36.0168 22.0532 35.7319 21.7659C35.4471 21.4785 35.0911 21.3349 34.6639 21.3349C34.2366 21.3349 33.8806 21.4785 33.5958 21.7659C33.311 22.0532 33.1686 22.4124 33.1686 22.8434C33.1686 23.2744 33.311 23.6336 33.5958 23.9209C33.8806 24.2082 34.2366 24.3519 34.6639 24.3519ZM3.97434 21.7659C3.68952 22.0532 3.54711 22.4124 3.54711 22.8434C3.54711 23.2744 3.68952 23.6336 3.97434 23.9209C4.25917 24.2082 4.61519 24.3519 5.04243 24.3519C5.46966 24.3519 5.82568 24.2082 6.11051 23.9209C6.39533 23.6336 6.53774 23.2744 6.53774 22.8434C6.53774 22.4124 6.39533 22.0532 6.11051 21.7659C5.82568 21.4785 5.46966 21.3349 5.04243 21.3349C4.61519 21.263 4.18796 21.4785 3.97434 21.7659ZM9.67078 24.3519C10.5252 24.3519 11.1661 23.7054 11.1661 22.8434C11.1661 21.9814 10.454 21.3349 9.67078 21.3349C8.81631 21.3349 8.17546 22.0532 8.17546 22.8434C8.17546 23.6336 8.88752 24.3519 9.67078 24.3519ZM14.3703 24.3519C14.7976 24.3519 15.1536 24.2082 15.4384 23.9209C15.7232 23.6336 15.8656 23.2744 15.8656 22.8434C15.8656 22.4124 15.7232 22.0532 15.4384 21.7659C15.1536 21.4785 14.7976 21.3349 14.3703 21.3349C13.9431 21.3349 13.5871 21.4785 13.3022 21.7659C13.0174 22.0532 12.875 22.4124 12.875 22.8434C12.875 23.2744 13.0174 23.6336 13.3022 23.9209C13.5871 24.2082 14.0143 24.3519 14.3703 24.3519ZM10.098 8.04547C10.3828 7.75813 10.5252 7.39895 10.5252 6.96795C10.5252 6.53694 10.3828 6.17777 10.098 5.89043C9.81319 5.60309 9.45716 5.45942 9.02993 5.45942C8.60269 5.45942 8.24667 5.60309 7.96185 5.89043C7.67702 6.17777 7.53461 6.53694 7.53461 6.96795C7.53461 7.39895 7.67702 7.75813 7.96185 8.04547C8.24667 8.3328 8.60269 8.47647 9.02993 8.47647C9.38595 8.47647 9.81319 8.3328 10.098 8.04547ZM12.3054 11.8527C12.6614 11.8527 13.0886 11.709 13.3735 11.4217C13.9431 10.847 13.9431 9.84133 13.3735 9.26665C12.8038 8.69197 11.8069 8.69197 11.2373 9.26665C10.6677 9.84133 10.6677 10.847 11.2373 11.4217C11.5933 11.709 11.9493 11.8527 12.3054 11.8527ZM17.1473 13.6486C17.1473 13.2175 17.0049 12.8584 16.7201 12.571C16.4353 12.2837 16.0793 12.14 15.652 12.14C15.2248 12.14 14.8688 12.2837 14.5839 12.571C14.2991 12.8584 14.1567 13.2175 14.1567 13.6486C14.1567 14.0796 14.2991 14.4387 14.5839 14.7261C14.8688 15.0134 15.2248 15.1571 15.652 15.1571C16.0793 15.1571 16.4353 15.0134 16.7201 14.7261C17.0049 14.4387 17.1473 14.0796 17.1473 13.6486ZM40.1467 8.69198C40.4315 8.40464 40.5739 8.04547 40.5739 7.61446C40.5739 7.18345 40.4315 6.82428 40.1467 6.53694C39.8619 6.2496 39.5058 6.10593 39.0786 6.10593C38.6514 6.10593 38.2953 6.2496 38.0105 6.53694C37.7257 6.82428 37.5833 7.18345 37.5833 7.61446C37.5833 8.04547 37.7257 8.40464 38.0105 8.69198C38.2953 8.97931 38.6514 9.12298 39.0786 9.12298C39.4346 9.19482 39.8619 8.97931 40.1467 8.69198ZM36.8 9.91316C36.2304 9.33849 35.2335 9.33849 34.6639 9.91316C34.0942 10.4878 34.0942 11.4935 34.6639 12.0682C34.9487 12.3555 35.3759 12.4992 35.7319 12.4992C36.088 12.4992 36.5152 12.3555 36.8 12.0682C37.3697 11.4935 37.3697 10.4878 36.8 9.91316ZM33.4534 13.2894C33.1686 13.002 32.8125 12.8584 32.3853 12.8584C31.9581 12.8584 31.602 13.002 31.3172 13.2894C31.0324 13.5767 30.89 13.9359 30.89 14.3669C30.89 14.7979 31.0324 15.1571 31.3172 15.4444C31.602 15.7318 31.9581 15.8754 32.3853 15.8754C32.8125 15.8754 33.1686 15.7318 33.4534 15.4444C33.7382 15.1571 33.8806 14.7979 33.8806 14.3669C33.9518 13.9359 33.7382 13.5767 33.4534 13.2894ZM35.2335 59.6226H16.5777C14.94 59.6226 13.5159 59.048 12.3766 58.0423C11.8781 58.617 11.0949 58.9761 10.3116 58.9761H3.68952C2.12301 58.9761 0.841309 57.6831 0.841309 56.1028V35.7736C0.841309 34.1932 2.12301 32.9002 3.68952 32.9002H10.3116C11.0237 32.9002 11.6645 33.1875 12.163 33.6185C12.2342 33.5467 12.3766 33.5467 12.4478 33.4749C12.7326 33.403 19.3547 31.3917 19.3547 25.7168V18.1023C19.3547 17.4558 19.7819 16.8811 20.4228 16.6656C20.5652 16.5938 24.4103 15.4444 27.1873 17.5276C28.9674 18.8206 29.8219 21.0475 29.8219 24.0646V30.4578H38.865C42.4253 30.4578 45.3447 33.403 45.3447 36.9948C45.3447 37.0666 45.3447 37.1384 45.3447 37.2103L42.8525 53.3012C42.354 57.3239 39.577 59.6226 35.2335 59.6226ZM10.098 35.9891H3.83193V55.8873H10.098V35.9891ZM39.8619 52.8702L42.354 36.9229C42.2828 35.0552 40.7875 33.5467 38.865 33.5467H28.3978C27.5433 33.5467 26.9025 32.8284 26.9025 32.0382V23.9927C26.9025 21.9814 26.404 20.6165 25.4784 19.8982C24.6239 19.2516 23.4134 19.1798 22.4877 19.3235V25.7168C22.4877 33.7622 13.7295 36.3483 13.3022 36.4201C13.231 36.4201 13.1598 36.4201 13.0886 36.4201V53.0139C13.0886 54.9534 14.6552 56.5338 16.5777 56.5338H35.2335C39.4346 56.6056 39.7194 53.804 39.8619 52.8702Z" fill="#0AA8E2" stroke="white" stroke-width="1.19245" mask="url(#path-1-inside-1_798_24598)"/>
</svg>
